<svg xmlns="http://www.w3.org/2000/svg" width="16" height="16" viewBox="0 0 16 16" fill="none">
  <path d="M2.75 15V11.5M2.75 4.5V1M1 2.75H4.5M1 13.25H4.5M8.7 1.7L7.48608 4.8562C7.28867 5.36946 7.18996 5.62609 7.03647 5.84196C6.90043 6.03328 6.73328 6.20043 6.54196 6.33647C6.32609 6.48996 6.06946 6.58867 5.5562 6.78608L2.4 8L5.5562 9.21392C6.06947 9.41133 6.3261 9.51004 6.54196 9.66353C6.73328 9.79957 6.90043 9.96672 7.03647 10.158C7.18996 10.3739 7.28867 10.6305 7.48608 11.1438L8.7 14.3L9.91393 11.1438C10.1113 10.6305 10.21 10.3739 10.3635 10.158C10.4996 9.96672 10.6667 9.79957 10.858 9.66353C11.0739 9.51004 11.3305 9.41133 11.8438 9.21392L15 8L11.8438 6.78607C11.3305 6.58867 11.0739 6.48996 10.858 6.33647C10.6667 6.20043 10.4996 6.03328 10.3635 5.84196C10.21 5.6261 10.1113 5.36946 9.91392 4.8562L8.7 1.7Z" stroke="black" stroke-width="1.5" stroke-linecap="round" stroke-linejoin="round"/>
</svg>