<svg xmlns="http://www.w3.org/2000/svg" width="18" height="18" viewBox="0 0 18 18" fill="none">
  <path d="M1.31337 14.2867C1.35165 13.9421 1.3708 13.7699 1.42293 13.6088C1.46918 13.4659 1.53453 13.33 1.6172 13.2046C1.71038 13.0633 1.83296 12.9407 2.07811 12.6956L13.0834 1.69035C14.0038 0.769881 15.4962 0.769882 16.4167 1.69036C17.3372 2.61083 17.3372 4.10322 16.4167 5.02369L5.41144 16.0289C5.16629 16.2741 5.04371 16.3966 4.90241 16.4898C4.77704 16.5725 4.64108 16.6378 4.4982 16.6841C4.33717 16.7362 4.16488 16.7554 3.82031 16.7937L1 17.107L1.31337 14.2867Z" stroke="#959590" stroke-width="1.66667" stroke-linecap="round" stroke-linejoin="round"/>
</svg>