<svg xmlns="http://www.w3.org/2000/svg" width="80" height="32" viewBox="0 0 80 32" fill="none">
  <g clip-path="url(#clip0_730_40681)">
    <path fill-rule="evenodd" clip-rule="evenodd" d="M52.8572 6.40001C52.8572 8.36418 51.2587 9.95556 49.2858 9.95556C47.3128 9.95556 45.7144 8.36418 45.7144 6.40001C45.7144 4.43583 47.3128 2.84445 49.2858 2.84445C51.2587 2.84445 52.8572 4.43583 52.8572 6.40001Z" fill="white"/>
    <path fill-rule="evenodd" clip-rule="evenodd" d="M15.0006 0L0 31.2889H6.61326L15.0006 13.7945L23.3879 31.2889H30L15.0006 0Z" fill="white"/>
    <path fill-rule="evenodd" clip-rule="evenodd" d="M12.1428 28.781C12.1428 26.9251 13.6468 25.6 15.376 25.6C17.1051 25.6 18.5714 26.9251 18.5714 28.781C18.5714 30.6749 17.1051 32 15.376 32C13.6468 32 12.1428 30.6749 12.1428 28.781Z" fill="#8F2B8A"/>
    <path fill-rule="evenodd" clip-rule="evenodd" d="M75 32H80V2.84445H75V32Z" fill="white"/>
    <path fill-rule="evenodd" clip-rule="evenodd" d="M46.4285 31.2889H51.4285V12.0889H46.4285V31.2889Z" fill="white"/>
    <path fill-rule="evenodd" clip-rule="evenodd" d="M72.8571 21.2293C72.8571 22.0439 72.8187 23.0871 72.8187 23.0871H59.8917C59.8824 24.1186 60.3547 25.3661 61.1086 26.0124C61.8613 26.6599 62.9804 26.9546 64.1751 26.9546C66.1214 26.9546 67.6791 26.2166 68.8471 24.7418L72.5069 28.1579C70.456 30.7189 67.7303 32 64.331 32C61.4238 32 59.0227 31.1007 57.1277 29.3021C55.2326 27.5047 54.2856 25.1305 54.2856 22.1808C54.2856 19.2821 55.1616 16.8766 56.9136 14.9608C58.6656 13.0462 60.9166 12.0889 63.6691 12.0889C69.4148 12.0889 72.8571 16.9173 72.8571 21.2293ZM63.9681 16.4287C62.9815 16.4287 61.995 16.742 61.3715 17.3675C60.7491 17.9941 60.3454 18.7959 60.1651 19.7741H67.2614C67.2079 18.8273 66.8845 18.0324 66.2877 17.3907C65.6898 16.749 64.8766 16.4287 63.9681 16.4287Z" fill="white"/>
    <path fill-rule="evenodd" clip-rule="evenodd" d="M43.1935 12.0889C39.9781 12.0889 37.91 13.9924 36.9164 17.3534V16.1508V12.274H31.4285V31.2889H36.9164V25.0907V23.8112C36.9164 21.8693 37.3867 20.3454 38.7743 19.0159C39.605 18.2917 40.8135 17.8738 42.4379 17.8738C42.8908 17.8738 43.1935 17.8738 43.5713 17.9122V12.0889H43.1935Z" fill="white"/>
  </g>
  <defs>
    <clipPath id="clip0_730_40681">
      <rect width="80" height="32" fill="white"/>
    </clipPath>
  </defs>
</svg>